<svg width="32" height="32  " viewBox="0 0 256 256" xmlns="http://www.w3.org/2000/svg">
<path d="M242.12 125.602C243.44 126.762 243.56 128.442 242.04 130.122C241.24 131.442 239.2 131.562 237.88 130.042L217.6 112.442V204.802C217.6 218.922 206.12 230.402 192 230.402H64C49.86 230.402 38.4 218.922 38.4 204.802V112.442L18.12 130.042C16.7988 131.562 14.7764 131.442 13.6048 130.122C12.4327 128.442 12.5554 126.762 13.8784 125.602L125.88 26.406C127.08 25.3334 128.92 25.3334 130.12 26.406L242.12 125.602ZM64 224.002H96V156.802C96 151.482 100.28 147.202 105.6 147.202H150.4C155.72 147.202 160 151.482 160 156.802V224.002H192C202.6 224.002 211.2 215.402 211.2 204.802V106.762L128 33.0776L44.8 106.762V204.802C44.8 215.402 53.4 224.002 64 224.002ZM102.4 224.002H153.6V156.802C153.6 155.042 152.16 153.602 150.4 153.602H105.6C103.84 153.602 102.4 155.042 102.4 156.802V224.002Z" />
</svg>
