<svg width="48" height="39" viewBox="0 0 48 39" fill="none" xmlns="http://www.w3.org/2000/svg">
<path d="M45.875 36.0156H42.3594V17.5586C42.3585 17.1791 42.2782 16.804 42.1234 16.4575C41.9687 16.111 41.743 15.8008 41.4609 15.5468L25.8359 1.3281C25.331 0.876498 24.6774 0.626831 24 0.626831C23.3226 0.626831 22.669 0.876498 22.1641 1.3281L6.53906 15.5468C6.25702 15.8008 6.03135 16.111 5.8766 16.4575C5.72185 16.804 5.64146 17.1791 5.64062 17.5586V36.0156H2.125C1.8142 36.0156 1.51613 36.1391 1.29636 36.3588C1.07659 36.5786 0.953125 36.8767 0.953125 37.1875C0.953125 37.4983 1.07659 37.7963 1.29636 38.0161C1.51613 38.2359 1.8142 38.3593 2.125 38.3593H45.875C46.1858 38.3593 46.4839 38.2359 46.7036 38.0161C46.9234 37.7963 47.0469 37.4983 47.0469 37.1875C47.0469 36.8767 46.9234 36.5786 46.7036 36.3588C46.4839 36.1391 46.1858 36.0156 45.875 36.0156ZM7.98438 17.5586C7.98273 17.5072 7.99237 17.4561 8.01262 17.4088C8.03287 17.3616 8.06323 17.3194 8.10156 17.2851L23.7266 3.06638C23.7986 3.0005 23.8926 2.96396 23.9902 2.96396C24.0878 2.96396 24.1819 3.0005 24.2539 3.06638L39.8789 17.2851C39.9232 17.3152 39.959 17.3561 39.983 17.404C40.0069 17.4519 40.0182 17.5051 40.0156 17.5586V36.0156H29.8594V26.25C29.8594 25.5248 29.5713 24.8293 29.0585 24.3165C28.5457 23.8037 27.8502 23.5156 27.125 23.5156H20.875C20.1498 23.5156 19.4543 23.8037 18.9415 24.3165C18.4287 24.8293 18.1406 25.5248 18.1406 26.25V36.0156H7.98438V17.5586ZM27.5156 36.0156H20.4844V26.25C20.4844 26.1464 20.5255 26.047 20.5988 25.9738C20.672 25.9005 20.7714 25.8593 20.875 25.8593H27.125C27.2286 25.8593 27.328 25.9005 27.4012 25.9738C27.4745 26.047 27.5156 26.1464 27.5156 26.25V36.0156Z" fill="white"/>
</svg>
